<?xml version="1.0" encoding="UTF-8"?>
<svg width="19px" height="23px" viewBox="0 0 19 23" version="1.1" xmlns="http://www.w3.org/2000/svg" xmlns:xlink="http://www.w3.org/1999/xlink">
    <!-- Generator: Sketch 52.5 (67469) - http://www.bohemiancoding.com/sketch -->
    <title>phone</title>
    <desc>Created with Sketch.</desc>
    <g id="Page-1" stroke="none" stroke-width="1" fill="none" fill-rule="evenodd">
        <path d="M7.55325239,0.788331221 L8.09870693,0.788331221 C8.34974546,0.788331221 8.55325239,1.05696037 8.55325239,1.38833122 L8.55325239,6.18833122 C8.55325239,6.51970207 8.34974546,6.78833122 8.09870693,6.78833122 L7.55325239,6.78833122" id="Path" stroke="#000000" transform="translate(8.053252, 3.788331) rotate(-33.000000) translate(-8.053252, -3.788331) "></path>
        <path d="M15.5532524,12.7883312 L16.0987069,12.7883312 C16.3497455,12.7883312 16.5532524,13.0569604 16.5532524,13.3883312 L16.5532524,18.1883312 C16.5532524,18.5197021 16.3497455,18.7883312 16.0987069,18.7883312 L15.5532524,18.7883312" id="Path" stroke="#000000" transform="translate(16.053252, 15.788331) rotate(-33.000000) translate(-16.053252, -15.788331) "></path>
        <path d="M11.2723195,1.91933528 C9.9917223,2.34019201 8.86921926,3.4942053 7.90481037,5.38137516 C6.94040149,7.26854502 6.39679099,9.41908555 6.27397887,11.8329968 C6.24075824,14.3052289 6.70635237,16.5407179 7.67076126,18.5394638 C8.63517014,20.5382096 9.83568956,21.6648335 11.2723195,21.9193353" id="Path-4" stroke="#000000" transform="translate(8.772320, 11.919335) rotate(-33.000000) translate(-8.772320, -11.919335) "></path>
        <path d="M11,7 C10.3333333,7.41917023 9.8448161,7.94475506 9.53444829,8.5767545 C9.06889658,9.52475365 9,9.59441074 9,10.8855423 C9,12.1766739 9.06889658,12.6555364 9.53444829,13.6676298 C9.8448161,14.3423588 10.3333333,14.7864822 11,15" id="Path-3" stroke="#000000" transform="translate(10.000000, 11.000000) rotate(-33.000000) translate(-10.000000, -11.000000) "></path>
        <path d="" id="Path-2" stroke="#979797"></path>
        <path d="M16.3153863,18.9685122 L17.2757073,18.5766624" id="Path-5" stroke="#000000"></path>
        <path d="M13.0172267,13.7790019 L14,13.5399418" id="Path-6" stroke="#000000"></path>
        <path d="M8.68186351,7.10067869 L9.27483663,6.57666244" id="Path-7" stroke="#000000"></path>
        <path d="M5.42581513,2.17103202 C5.80860504,1.7527517 6,1.54361154 6,1.54361154" id="Path-8" stroke="#000000"></path>
    </g>
</svg>